<svg xmlns="http://www.w3.org/2000/svg" version="1.1" xmlns:xlink="http://www.w3.org/1999/xlink" viewBox="0 0 13.252571492497376 4.365731177734163"><g transform="matrix(0.7483354044363397,0,0,0.7483354044363397,4.6322001626872495,1.6660099103635644)"><g transform="matrix(1,0,0,1,0,0)" clip-path="url(#SvgjsClipPath104317)"><g clip-path="url(#SvgjsClipPath104315787b638c-8f7e-4fc6-a872-ce15558f8521)"><path d=" M -2.139606385895866 0.9253396574614682 L -2.139606385895866 1.0589993583813024 C -2.139606385895866 1.1601746762927716 -2.2252162702824942 1.2424007707826954 -2.326053209204293 1.2461229396690703 C -2.4184306733843304 1.2491683505761046 -2.5006567678742537 1.187244995466409 -2.5229897811925044 1.0975745632037355 C -2.5253584341201973 1.085392919575599 -2.5267119500788793 1.073211275947462 -2.5267119500788793 1.0606912533296544 C -2.5267119500788793 0.9713592000566517 -2.5250200551305273 0.8820271467836484 -2.5267119500788793 0.7926950935106455 C -2.52705032906855 0.6962570814545624 -2.4563291202274224 0.6147077449439803 -2.360906245140351 0.6011725853571616 C -2.2516098314767907 0.5883141837496838 -2.1578788513380713 0.6539597077457543 -2.1426517968029004 0.7568269206055761 C -2.134530701050809 0.8116443169321915 -2.141298280844219 0.8688303661865006 -2.141298280844219 0.9250012784717979 L -2.139944764885537 0.9250012784717979 Z" fill="#ffffff" transform="matrix(1,0,0,1,0,0)" fill-rule="nonzero"></path></g><g clip-path="url(#SvgjsClipPath104315787b638c-8f7e-4fc6-a872-ce15558f8521)"><path d=" M -1.4794289770487872 0.922971004533775 L -1.4794289770487872 0.786604271696577 C -1.477060324121094 0.6938884285268693 -1.4090461471973301 0.616061260902662 -1.3176838199863043 0.6011725853571616 C -1.2185387760128576 0.5883141837496838 -1.1271764488018317 0.6441467170453111 -1.1014596455868766 0.7344939072873252 C -1.0960455817521493 0.7534431307088713 -1.093338549834785 0.7730691121097585 -1.093000170845115 0.7926950935106455 C -1.091985033876103 0.8786433568869437 -1.094692065793467 0.964591620263242 -1.091985033876103 1.0505398836395403 C -1.090293138927751 1.1469778956956236 -1.1603375897895374 1.229542369175217 -1.2557604648766092 1.244092665731047 C -1.3643801205608286 1.2576278253178659 -1.4550656897925136 1.1929974382908064 -1.477737082100435 1.0911453623999963 C -1.4794289770487872 1.082347508668564 -1.4797673560384577 1.0732112759474615 -1.4797673560384577 1.0640750432263588 L -1.4797673560384577 0.9229710045337748 L -1.4797673560384577 0.9229710045337748 Z" fill="#ffffff" transform="matrix(1,0,0,1,0,0)" fill-rule="nonzero"></path></g><g clip-path="url(#SvgjsClipPath104315787b638c-8f7e-4fc6-a872-ce15558f8521)"><path d=" M -0.48865529529366203 1.216345588578069 C -0.50151369690114 1.2105931457536712 -0.5028672128598224 1.2041639449499324 -0.49846828599410564 1.191643922332125 C -0.4588779442026616 1.073211275947462 -0.43586817290506996 0.9497029447177417 -0.43011573008067217 0.8251794765190102 C -0.41082812766945587 0.43604363839797433 -0.5559927142380854 0.05705916996705229 -0.8307564538505043 -0.21905808560404805 C -0.946820447307474 -0.33546045805068836 -1.0825104221653308 -0.4305449541480894 -1.2310587986306654 -0.5002510260202054 C -1.2432404422588021 -0.5066802268239443 -1.2523766749799048 -0.5171699755037287 -1.257790738814632 -0.5296899981215359 C -1.27809347819486 -0.5811236045514468 -1.309901103223884 -0.6274815261363007 -1.35050658198434 -0.664703215000052 C -1.4235964437531599 -0.7317022549548045 -1.5108982230881405 -0.7577574371594303 -1.6090281300925755 -0.7577574371594303 C -1.7433645889917506 -0.7577574371594303 -1.8777010478909255 -0.7587725741284418 -2.012037506790101 -0.7577574371594303 C -2.0807284416932053 -0.7587725741284418 -2.1487426186169687 -0.7425303826242594 -2.2093124577679824 -0.7107227575952355 C -2.3439872956568277 -0.6372945168367444 -2.417415536415319 -0.471488811898216 -2.378501952603215 -0.32327881442255185 C -2.3751181627065105 -0.31008203382540367 -2.372749509778817 -0.296546874238585 -2.368688961902772 -0.2786127877860503 C -2.3730878887684876 -0.281319819703414 -2.377486815634204 -0.2840268516207778 -2.3815473635102493 -0.287072262527812 C -2.3852695323966246 -0.29045605242451666 -2.3886533222933295 -0.29417822131089183 -2.392037112190034 -0.29790039019726694 C -2.427566906105433 -0.3395210059267343 -2.452945330330718 -0.38858595942895185 -2.4664804899175365 -0.441711460807215 C -2.4715561747625934 -0.45964554725974965 -2.477985375566332 -0.4599839262494202 -2.4911821561634806 -0.4515244515076585 C -2.5297573609859136 -0.42749954324105544 -2.569347702777358 -0.4044897719434637 -2.6065693916411092 -0.3784345897388378 C -2.736168544684898 -0.28876415747616424 -2.8491871272348335 -0.17709909088491038 -2.940211075456189 -0.04851507481013351 C -3.040032877408976 0.09089706893409866 -3.1127843601881264 0.24756654115152454 -3.1547433549072643 0.4137106250797232 C -3.177753126204856 0.5040578153217378 -3.191626664781345 0.596435279501775 -3.1963639706367317 0.689489501661153 C -3.2007628975024476 0.7896496826036109 -3.194333696698709 0.8898098635460691 -3.1767379892358445 0.988616528529845 C -3.15914228177298 1.0941907733070302 -3.1286881727026383 1.1973963651565227 -3.0863907989938304 1.2958646511506284 C -3.0677799545619546 1.3391771618284478 -3.046123699223045 1.3814745355372562 -3.0261593388324872 1.4244486672254055 L -3.028866370749851 1.4274940781324394 C -3.0356339505432604 1.4220800142977126 -3.0417247723573286 1.4159891924836439 -3.047815594171397 1.409559991679905 C -3.087744314952512 1.3618485541363694 -3.127673035733627 1.3144754955825038 -3.166586619545731 1.2664256790492976 C -3.1818136740809018 1.2478148346174223 -3.1848590849879357 1.2467996976484104 -3.198732623564425 1.267440816018309 C -3.2318937645521304 1.3165057695205267 -3.2369694493971877 1.3692928919091192 -3.2102375092132207 1.4224183932873826 C -3.1835055690292537 1.4755438946656456 -3.1381627844134115 1.502614213839283 -3.0789464612210797 1.5053212457566465 C -3.0511993840681018 1.5066747617153289 -3.023113927925453 1.5059980037359875 -2.995366850772475 1.5053212457566465 C -2.983861965123679 1.5043061087876355 -2.9726954584645537 1.5103969306017038 -2.967281394629826 1.5205483002918179 C -2.777789160414365 1.806816925553032 -2.4888135032357868 2.012212972283005 -2.156186956389719 2.0978228566696333 C -2.032678625159999 2.128953723719316 -1.905109746054233 2.1428272622958047 -1.7778792459381378 2.13910509340943 C -1.683471507820078 2.137413198461078 -1.5894021486916885 2.1259083128122818 -1.4973630635013215 2.1045904364630426 C -1.1552619049444801 2.024732994900812 -0.8568116360551294 1.817306674232817 -0.6622437169946109 1.5249472271575342 C -0.6547993792218612 1.5114120675707157 -0.6402490826660312 1.503629350808295 -0.6250220281308598 1.505321245756647 C -0.6003203618849162 1.5063363827256588 -0.5756186956389722 1.505321245756647 -0.5509170293930281 1.505321245756647 C -0.4917007062006964 1.505321245756647 -0.4382368258327629 1.4704682098205892 -0.41387353857649023 1.4166659504629848 C -0.3793588816301021 1.3405306777871302 -0.4131967805971488 1.2511986245141271 -0.48899367428333296 1.2166839675677394 Z M -2.071930587961773 -0.3852021695322472 L -1.9629725532878832 -0.4254692693030326 C -1.9166146317030293 -0.44272659777622636 -1.8800697008186187 -0.4792715286606367 -1.862812372345425 -0.5256294502454906 L -1.8225452725746396 -0.6345874849193807 C -1.8113787659155143 -0.6643648360103817 -1.7694197711963766 -0.6643648360103817 -1.7585916435269215 -0.6345874849193807 L -1.7183245437561363 -0.5256294502454906 C -1.7010672152829425 -0.4792715286606367 -1.664522284398532 -0.44272659777622636 -1.6181643628136781 -0.4254692693030326 L -1.5092063281397883 -0.3852021695322472 C -1.4794289770487872 -0.3740356628731218 -1.4794289770487872 -0.33207666815398396 -1.5092063281397883 -0.32124854048452905 L -1.6181643628136781 -0.28098144071374365 C -1.664522284398532 -0.26372411224054987 -1.7010672152829425 -0.22717918135613946 -1.7183245437561363 -0.18082125977128571 L -1.7585916435269215 -0.07186322509739562 C -1.7697581501860469 -0.04208587400639452 -1.8117171449051848 -0.04208587400639452 -1.8225452725746396 -0.07186322509739562 L -1.862812372345425 -0.18082125977128571 C -1.8800697008186187 -0.22717918135613957 -1.9166146317030293 -0.26372411224054987 -1.9629725532878832 -0.2809814407137437 L -2.071930587961773 -0.3212485404845291 C -2.1017079390527744 -0.3324150471436545 -2.1017079390527744 -0.37437404186279233 -2.071930587961773 -0.38520216953224723 Z M -0.724167072104307 1.4538876393267364 C -0.7282276199803523 1.464377388006521 -0.7349951997737616 1.4735136207276236 -0.7437930535051933 1.4806195795107038 C -0.8892960190634942 1.5973603309470144 -1.0540865870330114 1.6880459001786994 -1.2307204196409947 1.748277360340042 C -1.3444157601702713 1.7875293231418161 -1.4621716485755938 1.814938021305124 -1.581619431929268 1.829488317860954 C -1.6432044080492927 1.8369326556337042 -1.7054661421486588 1.839301308561398 -1.767389497258354 1.842685098458102 C -1.8780394268805964 1.8487759202721712 -1.987674219533827 1.8386245505820566 -2.0966322542077176 1.8223823590778747 C -2.218787069478756 1.803771514645999 -2.338573231822101 1.7719638896169756 -2.45396046729973 1.7272978629804734 C -2.6035239807340758 1.669435055746824 -2.7439512614473194 1.590254372163935 -2.870843382573744 1.4924628441491699 C -2.896221806799029 1.472836862748283 -2.9060347974994722 1.447458438522998 -2.915847788199916 1.4200497403596901 C -2.9530694770636674 1.315490632551516 -2.9750641113922476 1.2061942188879557 -2.9814933121959863 1.095205910276043 C -2.9909679239067595 0.9348142691722415 -2.9706651845265313 0.7791599339238274 -2.90400452356145 0.6316266944275043 C -2.8183946391748216 0.443487976170725 -2.6766138425028965 0.311181791209573 -2.4935508090911744 0.21948108500887653 C -2.3984663129937736 0.17143126847567036 -2.2976293740719744 0.13657823253961243 -2.1930702662638004 0.11559873518004349 C -2.114566340660252 0.10003330165520197 -2.034370520108352 0.09089706893409932 -1.954513078546122 0.08243759419233765 C -1.9020643351471997 0.07702353035761023 -1.8496155917482773 0.07499325641958743 -1.797166848349355 0.07600839338859877 C -1.6824563708510671 0.07702353035761023 -1.5680842723424497 0.08886679499607653 -1.455742447771855 0.11086142932465681 C -1.323097883821032 0.13623985354994184 -1.195190625725596 0.18293615412446618 -1.077434737320274 0.24925843609987763 C -0.9072301055160295 0.3470499641146422 -0.7803379843896043 0.48409345493118094 -0.7065713646414427 0.6678332463222442 C -0.6713799497157149 0.7575036785849177 -0.6507388313458162 0.8525881746823188 -0.6453247675110885 0.9486878077487312 C -0.6436328725627365 0.9744046109636865 -0.6426177355937246 1.0004597931683126 -0.6416025986247131 1.015348468713813 C -0.6436328725627365 1.174386593858932 -0.6686729177983506 1.3175209064895395 -0.7238286931146369 1.4545643973060782 Z" fill="#ffffff" transform="matrix(1,0,0,1,0,0)" fill-rule="nonzero"></path></g></g><g><path d=" M 0.533935546875 0.4108886718749998 Q 0.64306640625 0.4108886718749998 0.7203369140625 0.4350585937499998 Q 0.797607421875 0.4592285156249998 0.8470458984375 0.5002441406249998 Q 0.896484375 0.5412597656249998 0.919189453125 0.5961914062499998 Q 0.94189453125 0.6511230468749998 0.94189453125 0.7126464843749998 Q 0.94189453125 0.7382812499999998 0.933837890625 0.7580566406249998 Q 0.92578125 0.7778320312499998 0.9122314453125 0.7917480468749998 Q 0.898681640625 0.8056640624999998 0.879638671875 0.8129882812499998 Q 0.860595703125 0.8203124999999998 0.838623046875 0.8203124999999998 Q 0.819580078125 0.8203124999999998 0.7998046875 0.8137207031249998 Q 0.780029296875 0.8071289062499998 0.762451171875 0.7924804687499998 Q 0.744873046875 0.7778320312499998 0.73095703125 0.7543945312499998 Q 0.717041015625 0.7309570312499998 0.709716796875 0.6972656249999998 Q 0.703857421875 0.6730957031249998 0.692138671875 0.6547851562499998 Q 0.680419921875 0.6364746093749998 0.6654052734375 0.6236572265624998 Q 0.650390625 0.6108398437499998 0.6324462890625 0.6046142578124998 Q 0.614501953125 0.5983886718749998 0.596923828125 0.5983886718749998 Q 0.5654296875 0.5983886718749998 0.5423583984375 0.6115722656249998 Q 0.519287109375 0.6247558593749998 0.50390625 0.6500244140624998 Q 0.488525390625 0.6752929687499998 0.481201171875 0.7115478515624998 Q 0.473876953125 0.7478027343749998 0.473876953125 0.7932128906249998 Q 0.473876953125 0.9689941406249998 0.5269775390625 1.0535888671874998 Q 0.580078125 1.1381835937499998 0.697265625 1.1381835937499998 Q 0.73095703125 1.1381835937499998 0.76611328125 1.1290283203124998 Q 0.80126953125 1.1198730468749998 0.831298828125 1.1088867187499998 Q 0.861328125 1.0979003906249998 0.88330078125 1.0887451171874998 Q 0.9052734375 1.0795898437499998 0.913330078125 1.0795898437499998 Q 0.93017578125 1.0795898437499998 0.939697265625 1.0938720703124998 Q 0.94921875 1.1081542968749998 0.94921875 1.1264648437499998 Q 0.94921875 1.1323242187499998 0.9488525390625 1.1374511718749998 Q 0.948486328125 1.1425781249999998 0.9462890625 1.1477050781249998 Q 0.925048828125 1.2019042968749998 0.88623046875 1.2476806640624998 Q 0.847412109375 1.2934570312499998 0.7935791015625 1.3275146484374998 Q 0.73974609375 1.3615722656249998 0.671630859375 1.3806152343749998 Q 0.603515625 1.3996582031249998 0.523681640625 1.3996582031249998 Q 0.441650390625 1.3996582031249998 0.37353515625 1.3802490234374998 Q 0.305419921875 1.3608398437499998 0.2508544921875 1.3260498046874998 Q 0.1962890625 1.2912597656249998 0.1556396484375 1.2443847656249998 Q 0.114990234375 1.1975097656249998 0.0875244140625 1.1422119140624998 Q 0.06005859375 1.0869140624999998 0.0465087890625 1.0264892578124998 Q 0.032958984375 0.9660644531249998 0.032958984375 0.9045410156249998 Q 0.032958984375 0.8422851562499998 0.046875 0.7811279296874998 Q 0.060791015625 0.7199707031249998 0.088623046875 0.6650390624999998 Q 0.116455078125 0.6101074218749998 0.158203125 0.5635986328124998 Q 0.199951171875 0.5170898437499998 0.255615234375 0.4830322265624998 Q 0.311279296875 0.4489746093749998 0.380859375 0.4299316406249998 Q 0.450439453125 0.4108886718749998 0.533935546875 0.4108886718749998 M 1.611328125 1.0708007812499998 Q 1.611328125 1.1037597656249998 1.6201171875 1.1220703124999998 Q 1.62890625 1.1403808593749998 1.64208984375 1.1499023437499998 Q 1.6552734375 1.1594238281249998 1.670654296875 1.1630859374999998 Q 1.68603515625 1.1667480468749998 1.69921875 1.1711425781249998 Q 1.71240234375 1.1755371093749998 1.72119140625 1.1832275390624998 Q 1.72998046875 1.1909179687499998 1.72998046875 1.2084960937499998 Q 1.72998046875 1.3000488281249998 1.635498046875 1.3406982421874998 Q 1.541015625 1.3813476562499998 1.3623046875 1.3813476562499998 Q 1.27587890625 1.3813476562499998 1.2088623046875 1.3714599609374998 Q 1.141845703125 1.3615722656249998 1.0960693359375 1.3406982421874998 Q 1.05029296875 1.3198242187499998 1.0264892578125 1.2868652343749998 Q 1.002685546875 1.2539062499999998 1.002685546875 1.2084960937499998 Q 1.002685546875 1.1909179687499998 1.011474609375 1.1832275390624998 Q 1.020263671875 1.1755371093749998 1.0330810546875 1.1715087890624998 Q 1.0458984375 1.1674804687499998 1.0609130859375 1.1638183593749998 Q 1.075927734375 1.1601562499999998 1.0887451171875 1.1510009765624998 Q 1.1015625 1.1418457031249998 1.1103515625 1.1242675781249998 Q 1.119140625 1.1066894531249998 1.119140625 1.0737304687499998 L 1.119140625 0.5214843749999998 Q 1.119140625 0.4892578124999998 1.1103515625 0.4713134765624998 Q 1.1015625 0.4533691406249998 1.0887451171875 0.4442138671874998 Q 1.075927734375 0.4350585937499998 1.0609130859375 0.4313964843749998 Q 1.0458984375 0.4277343749999998 1.0330810546875 0.4237060546874998 Q 1.020263671875 0.4196777343749998 1.011474609375 0.4119873046874998 Q 1.002685546875 0.4042968749999998 1.002685546875 0.3867187499999998 Q 1.002685546875 0.3413085937499998 1.0264892578125 0.3087158203124998 Q 1.05029296875 0.2761230468749998 1.0960693359375 0.2552490234374998 Q 1.141845703125 0.23437499999999978 1.2088623046875 0.22448730468749978 Q 1.27587890625 0.21459960937499978 1.3623046875 0.21459960937499978 Q 1.45166015625 0.21459960937499978 1.5205078125 0.22448730468749978 Q 1.58935546875 0.23437499999999978 1.6358642578125 0.2552490234374998 Q 1.682373046875 0.2761230468749998 1.7061767578125 0.3087158203124998 Q 1.72998046875 0.3413085937499998 1.72998046875 0.3867187499999998 Q 1.72998046875 0.4042968749999998 1.72119140625 0.4119873046874998 Q 1.71240234375 0.4196777343749998 1.6995849609375 0.4237060546874998 Q 1.686767578125 0.4277343749999998 1.67138671875 0.4313964843749998 Q 1.656005859375 0.4350585937499998 1.6431884765625 0.4442138671874998 Q 1.63037109375 0.4533691406249998 1.62158203125 0.4713134765624998 Q 1.61279296875 0.4892578124999998 1.61279296875 0.5214843749999998 L 1.611328125 1.0708007812499998 M 2.16796875 0.9118652343749998 L 2.397216796875 0.9118652343749998 L 2.284423828125 0.4855957031249998 L 2.16796875 0.9118652343749998 M 1.97900390625 1.3813476562499998 Q 1.9248046875 1.3813476562499998 1.8837890625 1.3674316406249998 Q 1.8427734375 1.3535156249999998 1.8153076171875 1.3297119140624998 Q 1.787841796875 1.3059082031249998 1.77392578125 1.2747802734374998 Q 1.760009765625 1.2436523437499998 1.760009765625 1.2084960937499998 Q 1.760009765625 1.1909179687499998 1.76806640625 1.1832275390624998 Q 1.776123046875 1.1755371093749998 1.789306640625 1.1711425781249998 Q 1.802490234375 1.1667480468749998 1.8189697265625 1.1630859374999998 Q 1.83544921875 1.1594238281249998 1.852294921875 1.1499023437499998 Q 1.869140625 1.1403808593749998 1.884521484375 1.1224365234374998 Q 1.89990234375 1.1044921874999998 1.910888671875 1.0708007812499998 L 2.091064453125 0.5214843749999998 Q 2.09619140625 0.5061035156249998 2.0987548828125 0.4943847656249998 Q 2.101318359375 0.4826660156249998 2.101318359375 0.4738769531249998 Q 2.101318359375 0.4511718749999998 2.0888671875 0.4431152343749998 Q 2.076416015625 0.4350585937499998 2.0614013671875 0.4306640624999998 Q 2.04638671875 0.4262695312499998 2.033935546875 0.4200439453124998 Q 2.021484375 0.4138183593749998 2.021484375 0.3947753906249998 Q 2.021484375 0.3896484374999998 2.022216796875 0.3867187499999998 Q 2.029541015625 0.3361816406249998 2.0625 0.3028564453124998 Q 2.095458984375 0.2695312499999998 2.1500244140625 0.2501220703124998 Q 2.20458984375 0.23071289062499978 2.278564453125 0.22265624999999978 Q 2.3525390625 0.21459960937499978 2.44189453125 0.21459960937499978 Q 2.517333984375 0.21459960937499978 2.5865478515625 0.22009277343749978 Q 2.65576171875 0.22558593749999978 2.71142578125 0.24389648437499978 Q 2.76708984375 0.2622070312499998 2.804443359375 0.2958984374999998 Q 2.841796875 0.3295898437499998 2.853515625 0.3867187499999998 Q 2.85498046875 0.3940429687499998 2.85498046875 0.3969726562499998 Q 2.85498046875 0.4094238281249998 2.8480224609375 0.4156494140624998 Q 2.841064453125 0.4218749999999998 2.830810546875 0.4255371093749998 Q 2.820556640625 0.4291992187499998 2.808837890625 0.4317626953124998 Q 2.797119140625 0.4343261718749998 2.786865234375 0.4394531249999998 Q 2.776611328125 0.4445800781249998 2.7696533203125 0.4544677734374998 Q 2.7626953125 0.4643554687499998 2.7626953125 0.4819335937499998 Q 2.7626953125 0.4973144531249998 2.769287109375 0.5214843749999998 L 2.93115234375 1.0708007812499998 Q 2.940673828125 1.1037597656249998 2.955322265625 1.1220703124999998 Q 2.969970703125 1.1403808593749998 2.9864501953125 1.1499023437499998 Q 3.0029296875 1.1594238281249998 3.0194091796875 1.1630859374999998 Q 3.035888671875 1.1667480468749998 3.049072265625 1.1711425781249998 Q 3.062255859375 1.1755371093749998 3.0703125 1.1832275390624998 Q 3.078369140625 1.1909179687499998 3.078369140625 1.2084960937499998 Q 3.078369140625 1.3000488281249998 2.98388671875 1.3406982421874998 Q 2.889404296875 1.3813476562499998 2.710693359375 1.3813476562499998 Q 2.624267578125 1.3813476562499998 2.5572509765625 1.3714599609374998 Q 2.490234375 1.3615722656249998 2.444091796875 1.3406982421874998 Q 2.39794921875 1.3198242187499998 2.3741455078125 1.2868652343749998 Q 2.350341796875 1.2539062499999998 2.350341796875 1.2084960937499998 Q 2.350341796875 1.1931152343749998 2.3572998046875 1.1854248046874998 Q 2.3642578125 1.1777343749999998 2.37451171875 1.1737060546874998 Q 2.384765625 1.1696777343749998 2.397216796875 1.1667480468749998 Q 2.40966796875 1.1638183593749998 2.419921875 1.1583251953124998 Q 2.43017578125 1.1528320312499998 2.4371337890625 1.1422119140624998 Q 2.444091796875 1.1315917968749998 2.444091796875 1.1118164062499998 Q 2.444091796875 1.0949707031249998 2.43896484375 1.0737304687499998 L 2.42724609375 1.0231933593749998 L 2.1298828125 1.0231933593749998 L 2.1123046875 1.0737304687499998 Q 2.102783203125 1.1015624999999998 2.102783203125 1.1191406249999998 Q 2.102783203125 1.1359863281249998 2.1097412109375 1.1451416015624998 Q 2.11669921875 1.1542968749999998 2.126953125 1.1590576171874998 Q 2.13720703125 1.1638183593749998 2.149658203125 1.1667480468749998 Q 2.162109375 1.1696777343749998 2.17236328125 1.1737060546874998 Q 2.1826171875 1.1777343749999998 2.1895751953125 1.1857910156249998 Q 2.196533203125 1.1938476562499998 2.196533203125 1.2084960937499998 Q 2.196533203125 1.2436523437499998 2.1826171875 1.2747802734374998 Q 2.168701171875 1.3059082031249998 2.1412353515625 1.3297119140624998 Q 2.11376953125 1.3535156249999998 2.0731201171875 1.3674316406249998 Q 2.032470703125 1.3813476562499998 1.97900390625 1.3813476562499998 M 3.6181640625 1.3996582031249998 Q 3.531005859375 1.3996582031249998 3.4581298828125 1.3791503906249998 Q 3.38525390625 1.3586425781249998 3.3270263671875 1.3231201171874998 Q 3.268798828125 1.2875976562499998 3.224853515625 1.2392578124999998 Q 3.180908203125 1.1909179687499998 3.151611328125 1.1348876953124998 Q 3.122314453125 1.0788574218749998 3.107666015625 1.0180664062499998 Q 3.093017578125 0.9572753906249998 3.093017578125 0.8964843749999998 Q 3.093017578125 0.8342285156249998 3.1087646484375 0.7738037109374998 Q 3.12451171875 0.7133789062499998 3.1563720703125 0.6591796874999998 Q 3.188232421875 0.6049804687499998 3.23583984375 0.5595703124999998 Q 3.283447265625 0.5141601562499998 3.3475341796875 0.4812011718749998 Q 3.41162109375 0.4482421874999998 3.4918212890625 0.4295654296874998 Q 3.572021484375 0.4108886718749998 3.668701171875 0.4108886718749998 Q 3.753662109375 0.4108886718749998 3.8243408203125 0.4299316406249998 Q 3.89501953125 0.4489746093749998 3.9521484375 0.4822998046874998 Q 4.00927734375 0.5156249999999998 4.0521240234375 0.5610351562499998 Q 4.094970703125 0.6064453124999998 4.12353515625 0.6599121093749998 Q 4.152099609375 0.7133789062499998 4.1663818359375 0.7727050781249998 Q 4.1806640625 0.8320312499999998 4.1806640625 0.8920898437499998 Q 4.1806640625 0.9543457031249998 4.165283203125 1.0166015624999998 Q 4.14990234375 1.0788574218749998 4.1187744140625 1.1352539062499998 Q 4.087646484375 1.1916503906249998 4.040771484375 1.2399902343749998 Q 3.993896484375 1.2883300781249998 3.9312744140625 1.3238525390624998 Q 3.86865234375 1.3593749999999998 3.790283203125 1.3795166015624998 Q 3.7119140625 1.3996582031249998 3.6181640625 1.3996582031249998 M 3.651123046875 1.2121582031249998 Q 3.67529296875 1.2121582031249998 3.6917724609375 1.1978759765624998 Q 3.708251953125 1.1835937499999998 3.718505859375 1.1564941406249998 Q 3.728759765625 1.1293945312499998 3.733154296875 1.0909423828124998 Q 3.737548828125 1.0524902343749998 3.737548828125 1.0048828124999998 Q 3.737548828125 0.9631347656249998 3.73681640625 0.9166259765624998 Q 3.736083984375 0.8701171874999998 3.733154296875 0.8250732421874998 Q 3.730224609375 0.7800292968749998 3.7236328125 0.7390136718749998 Q 3.717041015625 0.6979980468749998 3.7049560546875 0.6665039062499998 Q 3.69287109375 0.6350097656249998 3.674560546875 0.6166992187499998 Q 3.65625 0.5983886718749998 3.6298828125 0.5983886718749998 Q 3.604248046875 0.5983886718749998 3.5863037109375 0.6126708984374998 Q 3.568359375 0.6269531249999998 3.556640625 0.6525878906249998 Q 3.544921875 0.6782226562499998 3.5394287109375 0.7141113281249998 Q 3.533935546875 0.7499999999999998 3.533935546875 0.7932128906249998 Q 3.533935546875 0.8334960937499998 3.535400390625 0.8803710937499998 Q 3.536865234375 0.9272460937499998 3.541259765625 0.9737548828124998 Q 3.545654296875 1.0202636718749998 3.5540771484375 1.0634765624999998 Q 3.5625 1.1066894531249998 3.5753173828125 1.1396484374999998 Q 3.588134765625 1.1726074218749998 3.6068115234375 1.1923828124999998 Q 3.62548828125 1.2121582031249998 3.651123046875 1.2121582031249998 M 4.2509765625 0.9294433593749998 Q 4.2509765625 0.8913574218749998 4.263427734375 0.8671874999999998 Q 4.27587890625 0.8430175781249998 4.294189453125 0.8291015624999998 Q 4.3125 0.8151855468749998 4.3341064453125 0.8096923828124998 Q 4.355712890625 0.8041992187499998 4.374755859375 0.8041992187499998 L 4.979736328125 0.8041992187499998 Q 5.000244140625 0.8041992187499998 5.0218505859375 0.8096923828124998 Q 5.04345703125 0.8151855468749998 5.0614013671875 0.8291015624999998 Q 5.079345703125 0.8430175781249998 5.091064453125 0.8671874999999998 Q 5.102783203125 0.8913574218749998 5.102783203125 0.9294433593749998 Q 5.102783203125 0.9675292968749998 5.091064453125 0.9916992187499998 Q 5.079345703125 1.0158691406249998 5.0614013671875 1.0297851562499998 Q 5.04345703125 1.0437011718749998 5.0218505859375 1.0491943359374998 Q 5.000244140625 1.0546874999999998 4.979736328125 1.0546874999999998 L 4.374755859375 1.0546874999999998 Q 4.355712890625 1.0546874999999998 4.3341064453125 1.0491943359374998 Q 4.3125 1.0437011718749998 4.294189453125 1.0297851562499998 Q 4.27587890625 1.0158691406249998 4.263427734375 0.9916992187499998 Q 4.2509765625 0.9675292968749998 4.2509765625 0.9294433593749998 M 6.29736328125 1.0993652343749998 Q 6.29736328125 1.1293945312499998 6.305419921875 1.1462402343749998 Q 6.3134765625 1.1630859374999998 6.3251953125 1.1715087890624998 Q 6.3369140625 1.1799316406249998 6.3511962890625 1.1832275390624998 Q 6.365478515625 1.1865234374999998 6.377197265625 1.1901855468749998 Q 6.388916015625 1.1938476562499998 6.39697265625 1.2008056640624998 Q 6.405029296875 1.2077636718749998 6.405029296875 1.2238769531249998 Q 6.405029296875 1.3073730468749998 6.318603515625 1.3443603515624998 Q 6.232177734375 1.3813476562499998 6.06884765625 1.3813476562499998 Q 6.02490234375 1.3813476562499998 5.991943359375 1.3747558593749998 Q 5.958984375 1.3681640624999998 5.9351806640625 1.3560791015624998 Q 5.911376953125 1.3439941406249998 5.89599609375 1.3267822265624998 Q 5.880615234375 1.3095703124999998 5.87109375 1.2883300781249998 Q 5.85205078125 1.3059082031249998 5.8245849609375 1.3256835937499998 Q 5.797119140625 1.3454589843749998 5.7579345703125 1.3619384765624998 Q 5.71875 1.3784179687499998 5.6678466796875 1.3890380859374998 Q 5.616943359375 1.3996582031249998 5.5517578125 1.3996582031249998 Q 5.477783203125 1.3996582031249998 5.4210205078125 1.3791503906249998 Q 5.3642578125 1.3586425781249998 5.3228759765625 1.3231201171874998 Q 5.281494140625 1.2875976562499998 5.253662109375 1.2399902343749998 Q 5.225830078125 1.1923828124999998 5.208984375 1.1381835937499998 Q 5.192138671875 1.0839843749999998 5.1851806640625 1.0261230468749998 Q 5.17822265625 0.9682617187499998 5.17822265625 0.9118652343749998 Q 5.17822265625 0.8540039062499998 5.1866455078125 0.7946777343749998 Q 5.195068359375 0.7353515624999998 5.2144775390625 0.6796874999999998 Q 5.23388671875 0.6240234374999998 5.2642822265625 0.5749511718749998 Q 5.294677734375 0.5258789062499998 5.3382568359375 0.4896240234374998 Q 5.3818359375 0.4533691406249998 5.4400634765625 0.4321289062499998 Q 5.498291015625 0.4108886718749998 5.572265625 0.4108886718749998 Q 5.624267578125 0.4108886718749998 5.666748046875 0.4185791015624998 Q 5.709228515625 0.4262695312499998 5.7432861328125 0.4387207031249998 Q 5.77734375 0.4511718749999998 5.8033447265625 0.4672851562499998 Q 5.829345703125 0.4833984374999998 5.848388671875 0.4995117187499998 L 5.848388671875 0.2790527343749998 Q 5.848388671875 0.24902343749999978 5.8406982421875 0.23327636718749978 Q 5.8330078125 0.21752929687499978 5.8209228515625 0.20910644531249978 Q 5.808837890625 0.20068359374999978 5.7952880859375 0.19775390624999978 Q 5.78173828125 0.19482421874999978 5.7696533203125 0.19116210937499978 Q 5.757568359375 0.18749999999999978 5.7498779296875 0.18054199218749978 Q 5.7421875 0.17358398437499978 5.7421875 0.15747070312499978 Q 5.7421875 0.11572265624999978 5.7637939453125 0.08605957031249978 Q 5.785400390625 0.05639648437499978 5.8271484375 0.03698730468749978 Q 5.868896484375 0.017578124999999778 5.9296875 0.008789062499999778 Q 5.990478515625 -2.220446049250313e-16 6.06884765625 -2.220446049250313e-16 Q 6.14794921875 -2.220446049250313e-16 6.1937255859375 0.008056640624999778 Q 6.239501953125 0.016113281249999778 6.2633056640625 0.03552246093749978 Q 6.287109375 0.05493164062499978 6.293701171875 0.08789062499999978 Q 6.30029296875 0.12084960937499978 6.30029296875 0.17065429687499978 L 6.29736328125 1.0993652343749998 M 5.7421875 1.2136230468749998 Q 5.771484375 1.2136230468749998 5.800048828125 1.2033691406249998 Q 5.82861328125 1.1931152343749998 5.849853515625 1.1806640624999998 Q 5.848388671875 1.1616210937499998 5.848388671875 1.1422119140624998 Q 5.848388671875 1.1228027343749998 5.848388671875 1.1022949218749998 L 5.848388671875 0.6386718749999998 Q 5.823486328125 0.6240234374999998 5.79345703125 0.6112060546874998 Q 5.763427734375 0.5983886718749998 5.73193359375 0.5983886718749998 Q 5.6982421875 0.5983886718749998 5.6766357421875 0.6137695312499998 Q 5.655029296875 0.6291503906249998 5.642578125 0.6654052734374998 Q 5.630126953125 0.7016601562499998 5.6253662109375 0.7628173828124998 Q 5.62060546875 0.8239746093749998 5.62060546875 0.9147949218749998 Q 5.62060546875 0.9697265624999998 5.624267578125 1.0231933593749998 Q 5.6279296875 1.0766601562499998 5.640380859375 1.1187744140624998 Q 5.65283203125 1.1608886718749998 5.677001953125 1.1872558593749998 Q 5.701171875 1.2136230468749998 5.7421875 1.2136230468749998 M 6.98876953125 1.3996582031249998 Q 6.901611328125 1.3996582031249998 6.8287353515625 1.3791503906249998 Q 6.755859375 1.3586425781249998 6.6976318359375 1.3231201171874998 Q 6.639404296875 1.2875976562499998 6.595458984375 1.2392578124999998 Q 6.551513671875 1.1909179687499998 6.522216796875 1.1348876953124998 Q 6.492919921875 1.0788574218749998 6.478271484375 1.0180664062499998 Q 6.463623046875 0.9572753906249998 6.463623046875 0.8964843749999998 Q 6.463623046875 0.8342285156249998 6.4793701171875 0.7738037109374998 Q 6.4951171875 0.7133789062499998 6.5269775390625 0.6591796874999998 Q 6.558837890625 0.6049804687499998 6.6064453125 0.5595703124999998 Q 6.654052734375 0.5141601562499998 6.7181396484375 0.4812011718749998 Q 6.7822265625 0.4482421874999998 6.8624267578125 0.4295654296874998 Q 6.942626953125 0.4108886718749998 7.039306640625 0.4108886718749998 Q 7.124267578125 0.4108886718749998 7.1949462890625 0.4299316406249998 Q 7.265625 0.4489746093749998 7.32275390625 0.4822998046874998 Q 7.3798828125 0.5156249999999998 7.4227294921875 0.5610351562499998 Q 7.465576171875 0.6064453124999998 7.494140625 0.6599121093749998 Q 7.522705078125 0.7133789062499998 7.5369873046875 0.7727050781249998 Q 7.55126953125 0.8320312499999998 7.55126953125 0.8920898437499998 Q 7.55126953125 0.9543457031249998 7.535888671875 1.0166015624999998 Q 7.5205078125 1.0788574218749998 7.4893798828125 1.1352539062499998 Q 7.458251953125 1.1916503906249998 7.411376953125 1.2399902343749998 Q 7.364501953125 1.2883300781249998 7.3018798828125 1.3238525390624998 Q 7.2392578125 1.3593749999999998 7.160888671875 1.3795166015624998 Q 7.08251953125 1.3996582031249998 6.98876953125 1.3996582031249998 M 7.021728515625 1.2121582031249998 Q 7.0458984375 1.2121582031249998 7.0623779296875 1.1978759765624998 Q 7.078857421875 1.1835937499999998 7.089111328125 1.1564941406249998 Q 7.099365234375 1.1293945312499998 7.103759765625 1.0909423828124998 Q 7.108154296875 1.0524902343749998 7.108154296875 1.0048828124999998 Q 7.108154296875 0.9631347656249998 7.107421875 0.9166259765624998 Q 7.106689453125 0.8701171874999998 7.103759765625 0.8250732421874998 Q 7.100830078125 0.7800292968749998 7.09423828125 0.7390136718749998 Q 7.087646484375 0.6979980468749998 7.0755615234375 0.6665039062499998 Q 7.0634765625 0.6350097656249998 7.045166015625 0.6166992187499998 Q 7.02685546875 0.5983886718749998 7.00048828125 0.5983886718749998 Q 6.974853515625 0.5983886718749998 6.9569091796875 0.6126708984374998 Q 6.93896484375 0.6269531249999998 6.92724609375 0.6525878906249998 Q 6.91552734375 0.6782226562499998 6.9100341796875 0.7141113281249998 Q 6.904541015625 0.7499999999999998 6.904541015625 0.7932128906249998 Q 6.904541015625 0.8334960937499998 6.906005859375 0.8803710937499998 Q 6.907470703125 0.9272460937499998 6.911865234375 0.9737548828124998 Q 6.916259765625 1.0202636718749998 6.9246826171875 1.0634765624999998 Q 6.93310546875 1.1066894531249998 6.9459228515625 1.1396484374999998 Q 6.958740234375 1.1726074218749998 6.9774169921875 1.1923828124999998 Q 6.99609375 1.2121582031249998 7.021728515625 1.2121582031249998 M 8.117431640625 0.4108886718749998 Q 8.2265625 0.4108886718749998 8.3038330078125 0.4350585937499998 Q 8.381103515625 0.4592285156249998 8.4305419921875 0.5002441406249998 Q 8.47998046875 0.5412597656249998 8.502685546875 0.5961914062499998 Q 8.525390625 0.6511230468749998 8.525390625 0.7126464843749998 Q 8.525390625 0.7382812499999998 8.517333984375 0.7580566406249998 Q 8.50927734375 0.7778320312499998 8.4957275390625 0.7917480468749998 Q 8.482177734375 0.8056640624999998 8.463134765625 0.8129882812499998 Q 8.444091796875 0.8203124999999998 8.422119140625 0.8203124999999998 Q 8.403076171875 0.8203124999999998 8.38330078125 0.8137207031249998 Q 8.363525390625 0.8071289062499998 8.345947265625 0.7924804687499998 Q 8.328369140625 0.7778320312499998 8.314453125 0.7543945312499998 Q 8.300537109375 0.7309570312499998 8.293212890625 0.6972656249999998 Q 8.287353515625 0.6730957031249998 8.275634765625 0.6547851562499998 Q 8.263916015625 0.6364746093749998 8.2489013671875 0.6236572265624998 Q 8.23388671875 0.6108398437499998 8.2159423828125 0.6046142578124998 Q 8.197998046875 0.5983886718749998 8.180419921875 0.5983886718749998 Q 8.14892578125 0.5983886718749998 8.1258544921875 0.6115722656249998 Q 8.102783203125 0.6247558593749998 8.08740234375 0.6500244140624998 Q 8.072021484375 0.6752929687499998 8.064697265625 0.7115478515624998 Q 8.057373046875 0.7478027343749998 8.057373046875 0.7932128906249998 Q 8.057373046875 0.9689941406249998 8.1104736328125 1.0535888671874998 Q 8.16357421875 1.1381835937499998 8.28076171875 1.1381835937499998 Q 8.314453125 1.1381835937499998 8.349609375 1.1290283203124998 Q 8.384765625 1.1198730468749998 8.414794921875 1.1088867187499998 Q 8.44482421875 1.0979003906249998 8.466796875 1.0887451171874998 Q 8.48876953125 1.0795898437499998 8.496826171875 1.0795898437499998 Q 8.513671875 1.0795898437499998 8.523193359375 1.0938720703124998 Q 8.53271484375 1.1081542968749998 8.53271484375 1.1264648437499998 Q 8.53271484375 1.1323242187499998 8.5323486328125 1.1374511718749998 Q 8.531982421875 1.1425781249999998 8.52978515625 1.1477050781249998 Q 8.508544921875 1.2019042968749998 8.4697265625 1.2476806640624998 Q 8.430908203125 1.2934570312499998 8.3770751953125 1.3275146484374998 Q 8.3232421875 1.3615722656249998 8.255126953125 1.3806152343749998 Q 8.18701171875 1.3996582031249998 8.107177734375 1.3996582031249998 Q 8.025146484375 1.3996582031249998 7.95703125 1.3802490234374998 Q 7.888916015625 1.3608398437499998 7.8343505859375 1.3260498046874998 Q 7.77978515625 1.2912597656249998 7.7391357421875 1.2443847656249998 Q 7.698486328125 1.1975097656249998 7.6710205078125 1.1422119140624998 Q 7.6435546875 1.0869140624999998 7.6300048828125 1.0264892578124998 Q 7.616455078125 0.9660644531249998 7.616455078125 0.9045410156249998 Q 7.616455078125 0.8422851562499998 7.63037109375 0.7811279296874998 Q 7.644287109375 0.7199707031249998 7.672119140625 0.6650390624999998 Q 7.699951171875 0.6101074218749998 7.74169921875 0.5635986328124998 Q 7.783447265625 0.5170898437499998 7.839111328125 0.4830322265624998 Q 7.894775390625 0.4489746093749998 7.96435546875 0.4299316406249998 Q 8.033935546875 0.4108886718749998 8.117431640625 0.4108886718749998" fill="#ffffff" fill-rule="nonzero"></path></g><g></g></g><defs><clipPath id="SvgjsClipPath104317"><path d=" M -3.227494837686415 -0.7580958161491008 h 2.827494837686415 v 2.8975392885482014 h -2.827494837686415 Z"></path></clipPath><clipPath id="SvgjsClipPath104315787b638c-8f7e-4fc6-a872-ce15558f8521"><path d=" M -3.2274948376864145 -0.7580958161491008 L -0.3999999999999999 -0.7580958161491008 L -0.3999999999999999 2.1394434723991007 L -3.2274948376864145 2.1394434723991007 Z"></path></clipPath></defs></svg>